<svg width="2530" height="565" viewBox="0 0 2530 565" fill="none" xmlns="http://www.w3.org/2000/svg">
<path d="M281.5 522C409.906 522 514 417.906 514 289.5C514 161.094 409.906 57 281.5 57C153.094 57 49 161.094 49 289.5C49 417.906 153.094 522 281.5 522Z" fill="white"/>
<path fill-rule="evenodd" clip-rule="evenodd" d="M443.117 0.924166C479.076 3.89517 505.483 15.1801 526.935 36.7432C545.607 55.5122 556.536 77.7091 561.537 107.018C563.155 116.506 563.326 129.945 563.646 273.34C564 431.471 563.75 445.772 560.318 463.865C555.459 489.476 543.52 511.481 524.753 529.408C510.951 542.594 497.046 550.842 478.882 556.619C465.412 560.903 452.517 562.836 430.523 563.868C405.618 565.036 158.146 565.036 133.241 563.868C110.442 562.798 97.9802 560.871 84.0552 556.262C65.1583 550.007 52.8763 542.679 39.0633 529.419C20.1263 511.238 8.30823 489.492 3.45123 463.89C0.0132368 445.769 -0.235714 431.514 0.118286 273.34C0.438286 129.945 0.609236 116.506 2.22723 107.018C8.31623 71.3341 24.8373 43.2672 50.5453 24.9372C71.4353 10.0421 91.2133 3.41218 122.382 0.856173C136.806 -0.32683 428.724 -0.264837 443.117 0.924166ZM263.46 110.28C259.653 111.75 251.553 115.703 245.46 119.065C232.958 125.963 174.342 159.738 162.882 166.647C137.423 181.996 129.485 190.6 125.12 207.581C123.554 213.671 123.382 220.971 123.382 281.34C123.382 356.375 123.489 357.712 130.434 369.466C136.913 380.434 147.215 388.195 181.382 407.846C191.282 413.54 207.482 422.917 217.382 428.683C241.324 442.629 264.151 454.169 270.708 455.643C283.178 458.445 294.258 456.647 309.268 449.385C318.07 445.127 382.945 408.046 403.382 395.593C426.185 381.698 434.379 372.81 438.498 357.504C440.871 348.687 441.853 326.052 441.844 280.34C441.832 209.026 440.459 200.138 427.251 185.872C420.068 178.114 409.544 171.177 373.382 150.364C357.432 141.184 340.332 131.298 335.382 128.394C319.21 118.907 306.731 112.559 298.484 109.624C291.113 107 289.48 106.779 280.382 107.174C272.677 107.508 268.794 108.221 263.46 110.28ZM387.776 219.996L390.266 222.682L389.979 268.247C389.698 312.763 389.641 313.902 387.528 317.849C386.338 320.071 383.413 323.624 381.028 325.745C378.643 327.865 357.068 340.896 333.085 354.705C309.102 368.513 288.802 380.376 287.973 381.068C287.145 381.76 281.568 390.028 275.579 399.443C269.591 408.859 264.123 416.781 263.428 417.048C262.734 417.315 261.477 416.962 260.635 416.264C259.286 415.144 259.14 407.813 259.398 354.402L259.691 293.81L262.419 288.255C263.92 285.199 266.197 281.713 267.481 280.508C268.764 279.302 294.2 264.589 324.006 247.812C382.913 214.656 382.852 214.682 387.776 219.996Z" fill="white"/>
<path fill-rule="evenodd" clip-rule="evenodd" d="M443.117 0.924166C479.076 3.89517 505.483 15.1801 526.935 36.7432C545.607 55.5122 556.536 77.7091 561.537 107.018C563.155 116.506 563.326 129.945 563.646 273.34C564 431.471 563.75 445.772 560.318 463.865C555.459 489.476 543.52 511.481 524.753 529.408C510.951 542.594 497.046 550.842 478.882 556.619C465.412 560.903 452.517 562.836 430.523 563.868C405.618 565.036 158.146 565.036 133.241 563.868C110.442 562.798 97.9802 560.871 84.0552 556.262C65.1583 550.007 52.8763 542.679 39.0633 529.419C20.1263 511.238 8.30823 489.492 3.45123 463.89C0.0132368 445.769 -0.235714 431.514 0.118286 273.34C0.438286 129.945 0.609236 116.506 2.22723 107.018C8.31623 71.3341 24.8373 43.2672 50.5453 24.9372C71.4353 10.0421 91.2133 3.41218 122.382 0.856173C136.806 -0.32683 428.724 -0.264837 443.117 0.924166ZM263.46 110.28C259.653 111.75 251.553 115.703 245.46 119.065C232.958 125.963 174.342 159.738 162.882 166.647C137.423 181.996 129.485 190.6 125.12 207.581C123.554 213.671 123.382 220.971 123.382 281.34C123.382 356.375 123.489 357.712 130.434 369.466C136.913 380.434 147.215 388.195 181.382 407.846C191.282 413.54 207.482 422.917 217.382 428.683C241.324 442.629 264.151 454.169 270.708 455.643C283.178 458.445 294.258 456.647 309.268 449.385C318.07 445.127 382.945 408.046 403.382 395.593C426.185 381.698 434.379 372.81 438.498 357.504C440.871 348.687 441.853 326.052 441.844 280.34C441.832 209.026 440.459 200.138 427.251 185.872C420.068 178.114 409.544 171.177 373.382 150.364C357.432 141.184 340.332 131.298 335.382 128.394C319.21 118.907 306.731 112.559 298.484 109.624C291.113 107 289.48 106.779 280.382 107.174C272.677 107.508 268.794 108.221 263.46 110.28ZM387.776 219.996L390.266 222.682L389.979 268.247C389.698 312.763 389.641 313.902 387.528 317.849C386.338 320.071 383.413 323.624 381.028 325.745C378.643 327.865 357.068 340.896 333.085 354.705C309.102 368.513 288.802 380.376 287.973 381.068C287.145 381.76 281.568 390.028 275.579 399.443C269.591 408.859 264.123 416.781 263.428 417.048C262.734 417.315 261.477 416.962 260.635 416.264C259.286 415.144 259.14 407.813 259.398 354.402L259.691 293.81L262.419 288.255C263.92 285.199 266.197 281.713 267.481 280.508C268.764 279.302 294.2 264.589 324.006 247.812C382.913 214.656 382.852 214.682 387.776 219.996Z" fill="#2781F6"/>
<path d="M755.716 161.792V418H704.327V161.792H755.716ZM933.857 211.712C958.083 211.712 977.66 219.42 992.587 234.837C1007.51 250.009 1014.98 271.298 1014.98 298.705V418H963.589V305.68C963.589 289.529 959.552 277.171 951.476 268.606C943.401 259.797 932.389 255.392 918.441 255.392C904.248 255.392 892.991 259.797 884.671 268.606C876.596 277.171 872.558 289.529 872.558 305.68V418H821.17V214.649H872.558V239.976C879.41 231.166 888.097 224.314 898.62 219.42C909.387 214.281 921.133 211.712 933.857 211.712ZM1171.76 256.86H1136.16V418H1084.03V256.86H1060.91V214.649H1084.03V204.371C1084.03 179.411 1091.13 161.058 1105.32 149.312C1119.52 137.566 1140.93 132.06 1169.56 132.794V176.107C1157.08 175.862 1148.39 177.942 1143.5 182.347C1138.6 186.752 1136.16 194.705 1136.16 206.206V214.649H1171.76V256.86ZM1271.13 146.375V418H1219.75V146.375H1271.13ZM1528.56 214.649V418H1476.81V392.306C1470.2 401.115 1461.51 408.089 1450.74 413.228C1440.22 418.122 1428.72 420.569 1416.24 420.569C1400.33 420.569 1386.26 417.266 1374.03 410.659C1361.79 403.807 1352.13 393.896 1345.03 380.927C1338.18 367.713 1334.75 352.051 1334.75 333.943V214.649H1386.14V326.602C1386.14 342.753 1390.18 355.233 1398.25 364.042C1406.33 372.607 1417.34 376.889 1431.29 376.889C1445.48 376.889 1456.62 372.607 1464.69 364.042C1472.77 355.233 1476.81 342.753 1476.81 326.602V214.649H1528.56ZM1782.98 311.92C1782.98 319.261 1782.49 325.868 1781.51 331.741H1632.86C1634.08 346.423 1639.22 357.924 1648.27 366.244C1657.33 374.565 1668.46 378.725 1681.67 378.725C1700.76 378.725 1714.34 370.527 1722.42 354.131H1777.84C1771.97 373.708 1760.71 389.859 1744.07 402.583C1727.43 415.064 1707 421.304 1682.78 421.304C1663.2 421.304 1645.58 417.021 1629.92 408.456C1614.5 399.647 1602.39 387.289 1593.58 371.383C1585.01 355.477 1580.73 337.124 1580.73 316.324C1580.73 295.279 1585.01 276.804 1593.58 260.898C1602.14 244.992 1614.14 232.757 1629.55 224.192C1644.97 215.627 1662.71 211.345 1682.78 211.345C1702.11 211.345 1719.36 215.505 1734.53 223.825C1749.95 232.145 1761.82 244.013 1770.14 259.43C1778.7 274.602 1782.98 292.098 1782.98 311.92ZM1729.76 297.237C1729.51 284.023 1724.74 273.501 1715.44 265.67C1706.14 257.595 1694.77 253.557 1681.31 253.557C1668.58 253.557 1657.82 257.472 1649.01 265.303C1640.44 272.889 1635.18 283.534 1633.22 297.237H1729.76ZM1947.86 211.712C1972.09 211.712 1991.66 219.42 2006.59 234.837C2021.52 250.009 2028.98 271.298 2028.98 298.705V418H1977.59V305.68C1977.59 289.529 1973.56 277.171 1965.48 268.606C1957.41 259.797 1946.39 255.392 1932.45 255.392C1918.25 255.392 1907 259.797 1898.68 268.606C1890.6 277.171 1886.56 289.529 1886.56 305.68V418H1835.17V214.649H1886.56V239.976C1893.41 231.166 1902.1 224.314 1912.62 219.42C1923.39 214.281 1935.14 211.712 1947.86 211.712ZM2079.32 316.324C2079.32 295.279 2083.6 276.926 2092.17 261.265C2100.73 245.359 2112.6 233.124 2127.77 224.559C2142.94 215.75 2160.32 211.345 2179.89 211.345C2205.1 211.345 2225.9 217.707 2242.29 230.432C2258.93 242.912 2270.07 260.531 2275.7 283.289H2220.27C2217.33 274.479 2212.32 267.628 2205.22 262.733C2198.37 257.595 2189.8 255.025 2179.53 255.025C2164.84 255.025 2153.22 260.409 2144.65 271.176C2136.09 281.698 2131.81 296.748 2131.81 316.324C2131.81 335.656 2136.09 350.706 2144.65 361.473C2153.22 371.995 2164.84 377.256 2179.53 377.256C2200.33 377.256 2213.91 367.957 2220.27 349.36H2275.7C2270.07 371.383 2258.93 388.88 2242.29 401.849C2225.65 414.819 2204.85 421.304 2179.89 421.304C2160.32 421.304 2142.94 417.021 2127.77 408.456C2112.6 399.647 2100.73 387.412 2092.17 371.75C2083.6 355.844 2079.32 337.369 2079.32 316.324ZM2517.06 311.92C2517.06 319.261 2516.57 325.868 2515.59 331.741H2366.93C2368.16 346.423 2373.3 357.924 2382.35 366.244C2391.4 374.565 2402.54 378.725 2415.75 378.725C2434.84 378.725 2448.42 370.527 2456.5 354.131H2511.92C2506.05 373.708 2494.79 389.859 2478.15 402.583C2461.51 415.064 2441.08 421.304 2416.85 421.304C2397.28 421.304 2379.66 417.021 2364 408.456C2348.58 399.647 2336.47 387.289 2327.66 371.383C2319.09 355.477 2314.81 337.124 2314.81 316.324C2314.81 295.279 2319.09 276.804 2327.66 260.898C2336.22 244.992 2348.21 232.757 2363.63 224.192C2379.05 215.627 2396.79 211.345 2416.85 211.345C2436.19 211.345 2453.44 215.505 2468.61 223.825C2484.03 232.145 2495.89 244.013 2504.21 259.43C2512.78 274.602 2517.06 292.098 2517.06 311.92ZM2463.84 297.237C2463.59 284.023 2458.82 273.501 2449.52 265.67C2440.22 257.595 2428.84 253.557 2415.38 253.557C2402.66 253.557 2391.89 257.472 2383.08 265.303C2374.52 272.889 2369.26 283.534 2367.3 297.237H2463.84Z" fill="black"/>
</svg>
