<svg width="564" height="565" viewBox="0 0 564 565" fill="none" xmlns="http://www.w3.org/2000/svg">
<path d="M281.5 522C409.906 522 514 417.906 514 289.5C514 161.094 409.906 57 281.5 57C153.094 57 49 161.094 49 289.5C49 417.906 153.094 522 281.5 522Z" fill="white"/>
<path fill-rule="evenodd" clip-rule="evenodd" d="M443.117 0.924166C479.076 3.89517 505.483 15.1801 526.935 36.7432C545.607 55.5122 556.536 77.7091 561.537 107.018C563.155 116.506 563.326 129.945 563.646 273.34C564 431.471 563.75 445.772 560.318 463.865C555.459 489.476 543.52 511.481 524.753 529.408C510.951 542.594 497.046 550.842 478.882 556.619C465.412 560.903 452.517 562.836 430.523 563.868C405.618 565.036 158.146 565.036 133.241 563.868C110.442 562.798 97.9802 560.871 84.0552 556.262C65.1583 550.007 52.8763 542.679 39.0633 529.419C20.1263 511.238 8.30823 489.492 3.45123 463.89C0.0132368 445.769 -0.235714 431.514 0.118286 273.34C0.438286 129.945 0.609236 116.506 2.22723 107.018C8.31623 71.3341 24.8373 43.2672 50.5453 24.9372C71.4353 10.0421 91.2133 3.41218 122.382 0.856173C136.806 -0.32683 428.724 -0.264837 443.117 0.924166ZM263.46 110.28C259.653 111.75 251.553 115.703 245.46 119.065C232.958 125.963 174.342 159.738 162.882 166.647C137.423 181.996 129.485 190.6 125.12 207.581C123.554 213.671 123.382 220.971 123.382 281.34C123.382 356.375 123.489 357.712 130.434 369.466C136.913 380.434 147.215 388.195 181.382 407.846C191.282 413.54 207.482 422.917 217.382 428.683C241.324 442.629 264.151 454.169 270.708 455.643C283.178 458.445 294.258 456.647 309.268 449.385C318.07 445.127 382.945 408.046 403.382 395.593C426.185 381.698 434.379 372.81 438.498 357.504C440.871 348.687 441.853 326.052 441.844 280.34C441.832 209.026 440.459 200.138 427.251 185.872C420.068 178.114 409.544 171.177 373.382 150.364C357.432 141.184 340.332 131.298 335.382 128.394C319.21 118.907 306.731 112.559 298.484 109.624C291.113 107 289.48 106.779 280.382 107.174C272.677 107.508 268.794 108.221 263.46 110.28ZM387.776 219.996L390.266 222.682L389.979 268.247C389.698 312.763 389.641 313.902 387.528 317.849C386.338 320.071 383.413 323.624 381.028 325.745C378.643 327.865 357.068 340.896 333.085 354.705C309.102 368.513 288.802 380.376 287.973 381.068C287.145 381.76 281.568 390.028 275.579 399.443C269.591 408.859 264.123 416.781 263.428 417.048C262.734 417.315 261.477 416.962 260.635 416.264C259.286 415.144 259.14 407.813 259.398 354.402L259.691 293.81L262.419 288.255C263.92 285.199 266.197 281.713 267.481 280.508C268.764 279.302 294.2 264.589 324.006 247.812C382.913 214.656 382.852 214.682 387.776 219.996Z" fill="white"/>
<path fill-rule="evenodd" clip-rule="evenodd" d="M443.117 0.924166C479.076 3.89517 505.483 15.1801 526.935 36.7432C545.607 55.5122 556.536 77.7091 561.537 107.018C563.155 116.506 563.326 129.945 563.646 273.34C564 431.471 563.75 445.772 560.318 463.865C555.459 489.476 543.52 511.481 524.753 529.408C510.951 542.594 497.046 550.842 478.882 556.619C465.412 560.903 452.517 562.836 430.523 563.868C405.618 565.036 158.146 565.036 133.241 563.868C110.442 562.798 97.9802 560.871 84.0552 556.262C65.1583 550.007 52.8763 542.679 39.0633 529.419C20.1263 511.238 8.30823 489.492 3.45123 463.89C0.0132368 445.769 -0.235714 431.514 0.118286 273.34C0.438286 129.945 0.609236 116.506 2.22723 107.018C8.31623 71.3341 24.8373 43.2672 50.5453 24.9372C71.4353 10.0421 91.2133 3.41218 122.382 0.856173C136.806 -0.32683 428.724 -0.264837 443.117 0.924166ZM263.46 110.28C259.653 111.75 251.553 115.703 245.46 119.065C232.958 125.963 174.342 159.738 162.882 166.647C137.423 181.996 129.485 190.6 125.12 207.581C123.554 213.671 123.382 220.971 123.382 281.34C123.382 356.375 123.489 357.712 130.434 369.466C136.913 380.434 147.215 388.195 181.382 407.846C191.282 413.54 207.482 422.917 217.382 428.683C241.324 442.629 264.151 454.169 270.708 455.643C283.178 458.445 294.258 456.647 309.268 449.385C318.07 445.127 382.945 408.046 403.382 395.593C426.185 381.698 434.379 372.81 438.498 357.504C440.871 348.687 441.853 326.052 441.844 280.34C441.832 209.026 440.459 200.138 427.251 185.872C420.068 178.114 409.544 171.177 373.382 150.364C357.432 141.184 340.332 131.298 335.382 128.394C319.21 118.907 306.731 112.559 298.484 109.624C291.113 107 289.48 106.779 280.382 107.174C272.677 107.508 268.794 108.221 263.46 110.28ZM387.776 219.996L390.266 222.682L389.979 268.247C389.698 312.763 389.641 313.902 387.528 317.849C386.338 320.071 383.413 323.624 381.028 325.745C378.643 327.865 357.068 340.896 333.085 354.705C309.102 368.513 288.802 380.376 287.973 381.068C287.145 381.76 281.568 390.028 275.579 399.443C269.591 408.859 264.123 416.781 263.428 417.048C262.734 417.315 261.477 416.962 260.635 416.264C259.286 415.144 259.14 407.813 259.398 354.402L259.691 293.81L262.419 288.255C263.92 285.199 266.197 281.713 267.481 280.508C268.764 279.302 294.2 264.589 324.006 247.812C382.913 214.656 382.852 214.682 387.776 219.996Z" fill="#2781F6"/>
</svg>
